<?xml version="1.0" encoding="UTF-8" standalone="no"?>
<!-- Created with Inkscape (http://www.inkscape.org/) -->

<svg
   width="1500"
   height="1500"
   viewBox="0 0 396.875 396.87501"
   version="1.1"
   id="svg1"
   xml:space="preserve"
   xmlns="http://www.w3.org/2000/svg"
   xmlns:svg="http://www.w3.org/2000/svg"><defs
     id="defs1" /><g
     id="layer1"
     transform="translate(-396.87506,396.87506)"><g
       id="g1"
       transform="translate(318.18438,-374.03676)"><path
         style="fill:#336df4;fill-opacity:1;stroke-width:0.56;stroke-linecap:round"
         d="M 258.79724,10.583333 139.57442,79.416659 a 12.220581,12.220581 90.000001 0 0 0,21.166671 l 119.22282,68.83333 a 36.661744,36.661744 3.7656463e-6 0 0 36.66174,0 l 119.22285,-68.83333 a 12.220578,12.220578 90.000002 0 0 0,-21.16666 L 295.45898,10.583332 a 36.661743,36.661743 180 0 0 -36.66174,10e-7 z"
         id="path2" /><path
         style="fill:#10a893;fill-opacity:1;stroke:none;stroke-width:0.7;stroke-linecap:round"
         d="m 227.25447,231.20543 16.31015,9.41666 a 6.1102896,6.1102896 150 0 0 9.16543,-5.29166 v -38.83334 a 18.330872,18.330872 60.000002 0 0 -9.16543,-15.875 l -16.31015,-9.41666 a 6.1102896,6.1102896 150 0 0 -9.16543,5.29166 v 38.83334 a 18.330872,18.330872 60.000002 0 0 9.16543,15.875 z"
         id="path23"
         transform="translate(7.0775627,4.0862379)" /><path
         style="fill:#10a893;fill-opacity:1;stroke-width:0.56;stroke-linecap:round"
         d="m 130.409,115.29167 33.63064,19.41666 a 18.330871,18.330871 60.000001 0 1 9.16544,15.875 v 78.83333 a 18.330872,18.330872 60.000001 0 0 9.16543,15.875 l 68.27167,39.41666 a 18.330872,18.330872 60.000001 0 1 9.16543,15.875 v 38.83334 a 6.1102901,6.1102901 150 0 1 -9.16544,5.29166 L 130.40899,275.29166 a 18.330869,18.330869 60.000002 0 1 -9.16544,-15.875 l 1e-5,-138.83333 a 6.1102903,6.1102903 150 0 1 9.16544,-5.29166 z"
         id="path3" /><path
         style="fill:#336df4;fill-opacity:1;stroke-width:0.56;stroke-linecap:round"
         d="m 381.05117,150.58333 v 78.83333 a 18.330871,18.330871 120 0 1 -9.16544,15.875 l -68.27166,39.41666 a 18.330871,18.330871 120 0 0 -9.16544,15.875 v 38.83334 a 6.1102896,6.1102896 29.999998 0 0 9.16543,5.29166 l 120.23318,-69.41666 a 18.330877,18.330877 120 0 0 9.16543,-15.875 l 4e-5,-138.83333 a 6.1102893,6.1102893 30.000011 0 0 -9.16544,-5.29166 l -33.63066,19.41666 a 18.330868,18.330868 120 0 0 -9.16544,15.875 z"
         id="path4" /><path
         style="fill:#336df4;fill-opacity:1;stroke:none;stroke-width:0.7;stroke-linecap:round"
         d="m 329.08966,219.41667 v -38.83334 a 6.1102914,6.1102914 30.000005 0 0 -9.16544,-5.29167 l -16.31015,9.41668 a 18.330867,18.330867 120 0 0 -9.16544,15.87499 v 38.83334 a 6.1102914,6.1102914 30.000005 0 0 9.16544,5.29167 l 16.31015,-9.41668 a 18.330867,18.330867 120 0 0 9.16544,-15.87499 z"
         id="path27" /></g></g></svg>
