<?xml version="1.0" encoding="UTF-8" standalone="no"?>
<!-- Created with Inkscape (http://www.inkscape.org/) -->

<svg
   width="3000"
   height="3000"
   viewBox="0 0 793.75 793.75002"
   version="1.1"
   id="svg1"
   xml:space="preserve"
   xmlns="http://www.w3.org/2000/svg"
   xmlns:svg="http://www.w3.org/2000/svg"><defs
     id="defs1" /><g
     id="layer1"
     transform="translate(-793.75006,793.75005)"><g
       id="use24"
       transform="matrix(1.2126211,0,0,1.2126211,854.57383,-720.80974)"><path
         style="fill:#336df4;fill-opacity:1;stroke-width:0.56;stroke-linecap:round"
         d="M 258.79724,10.583333 139.57442,79.416659 a 12.220581,12.220581 90.000001 0 0 0,21.166671 l 119.22282,68.83333 a 36.661744,36.661744 3.7656463e-6 0 0 36.66174,0 l 119.22285,-68.83333 a 12.220578,12.220578 90.000002 0 0 0,-21.16666 L 295.45898,10.583332 a 36.661743,36.661743 180 0 0 -36.66174,10e-7 z"
         id="path1" /><path
         style="fill:#10a893;fill-opacity:1;stroke:none;stroke-width:0.7;stroke-linecap:round"
         d="m 227.25447,231.20543 16.31015,9.41666 a 6.1102896,6.1102896 150 0 0 9.16543,-5.29166 v -38.83334 a 18.330872,18.330872 60.000002 0 0 -9.16543,-15.875 l -16.31015,-9.41666 a 6.1102896,6.1102896 150 0 0 -9.16543,5.29166 v 38.83334 a 18.330872,18.330872 60.000002 0 0 9.16543,15.875 z"
         id="path5"
         transform="translate(7.0775627,4.0862379)" /><path
         style="fill:#10a893;fill-opacity:1;stroke-width:0.56;stroke-linecap:round"
         d="m 130.409,115.29167 33.63064,19.41666 a 18.330871,18.330871 60.000001 0 1 9.16544,15.875 v 78.83333 a 18.330872,18.330872 60.000001 0 0 9.16543,15.875 l 68.27167,39.41666 a 18.330872,18.330872 60.000001 0 1 9.16543,15.875 v 38.83334 a 6.1102901,6.1102901 150 0 1 -9.16544,5.29166 L 130.40899,275.29166 a 18.330869,18.330869 60.000002 0 1 -9.16544,-15.875 l 1e-5,-138.83333 a 6.1102903,6.1102903 150 0 1 9.16544,-5.29166 z"
         id="path6" /><path
         style="fill:#336df4;fill-opacity:1;stroke-width:0.56;stroke-linecap:round"
         d="m 381.05117,150.58333 v 78.83333 a 18.330871,18.330871 120 0 1 -9.16544,15.875 l -68.27166,39.41666 a 18.330871,18.330871 120 0 0 -9.16544,15.875 v 38.83334 a 6.1102896,6.1102896 29.999998 0 0 9.16543,5.29166 l 120.23318,-69.41666 a 18.330877,18.330877 120 0 0 9.16543,-15.875 l 4e-5,-138.83333 a 6.1102893,6.1102893 30.000011 0 0 -9.16544,-5.29166 l -33.63066,19.41666 a 18.330868,18.330868 120 0 0 -9.16544,15.875 z"
         id="path7" /><path
         style="fill:#336df4;fill-opacity:1;stroke:none;stroke-width:0.7;stroke-linecap:round"
         d="m 329.08966,219.41667 v -38.83334 a 6.1102914,6.1102914 30.000005 0 0 -9.16544,-5.29167 l -16.31015,9.41668 a 18.330867,18.330867 120 0 0 -9.16544,15.87499 v 38.83334 a 6.1102914,6.1102914 30.000005 0 0 9.16544,5.29167 l 16.31015,-9.41668 a 18.330867,18.330867 120 0 0 9.16544,-15.87499 z"
         id="path8" /></g><g
       id="use25"
       transform="matrix(1.9402465,0,0,1.9402465,788.31068,-1103.4324)"><path
         d="m 44.53125,531.75391 c -4.417969,0 -8.347656,-0.88672 -11.785156,-2.66407 -2.603361,-1.33862 -4.822232,-3.02149 -6.656613,-5.04861 -0.979869,-1.08283 -0.777345,-2.86357 0.301572,-3.84906 l 4.889769,-4.46637 c 1.078917,-0.98549 2.582523,-0.76398 3.601019,0.28063 0.892047,0.91493 1.90046,1.67478 3.024409,2.27873 1.882812,1.01562 3.945312,1.51953 6.1875,1.51953 2.460938,0 4.5625,-0.50391 6.300781,-1.51953 1.738281,-1.01172 3.078125,-2.46094 4.019531,-4.34375 0.941407,-1.88282 1.410157,-4.12891 1.410157,-6.73438 v -49.92448 a 2.6458333,2.6458333 135 0 1 2.645833,-2.64583 l 7.200521,0 a 2.6458333,2.6458333 45 0 1 2.645833,2.64583 l 0,48.94792 c 0,5.0664 -0.996094,9.51953 -2.988281,13.35547 -1.992187,3.83984 -4.761719,6.82812 -8.308594,8.96093 -3.546875,2.13672 -7.710937,3.20704 -12.488281,3.20704"
         id="path29"
         style="fill:#10a893;fill-opacity:1" /><path
         d="m 120.01563,528.02214 v -11.36589 l 2.0625,-12.70703 -2.0625,-12.60156 v -10.17058 a 2.6458333,2.6458333 135 0 1 2.64583,-2.64583 h 6.65365 a 2.6458333,2.6458333 45 0 1 2.64583,2.64583 v 46.84506 a 2.6458333,2.6458333 135 0 1 -2.64583,2.64583 h -6.65365 a 2.6458333,2.6458333 45 0 1 -2.64583,-2.64583 z m -14.01172,-7.56511 c 4.41406,0 7.98437,-1.48437 10.69922,-4.45312 2.71484,-2.96875 4.07031,-6.76954 4.07031,-11.40625 0,-3.10938 -0.61328,-5.86329 -1.84375,-8.25391 -1.23438,-2.38672 -2.95313,-4.25 -5.16016,-5.59375 -2.21094,-1.33594 -4.79687,-2.00781 -7.76562,-2.00781 -2.89844,0 -5.44922,0.67187 -7.656254,2.00781 -2.210937,1.34375 -3.949218,3.20703 -5.214844,5.59375 -1.265624,2.39062 -1.902343,5.14453 -1.902343,8.25391 0,3.11718 0.636719,5.86718 1.902343,8.25781 1.265626,2.38672 3.003907,4.2539 5.214844,5.59375 2.207034,1.33984 4.757814,2.00781 7.656254,2.00781 m -1.95703,11.29688 c -4.707036,0 -8.960942,-1.19532 -12.761724,-3.58594 -3.800781,-2.39063 -6.804687,-5.62891 -9.015625,-9.71875 -2.207031,-4.08985 -3.308593,-8.67188 -3.308593,-13.74219 0,-5.14062 1.101562,-9.75391 3.308593,-13.84766 2.210938,-4.08984 5.214844,-7.34765 9.015625,-9.77343 3.800782,-2.42578 8.054688,-3.64063 12.761724,-3.64063 3.98437,0 7.51171,0.85156 10.58984,2.55469 3.07812,1.70312 5.52344,4.03516 7.33203,7.00391 1.80859,2.96875 2.71484,6.33593 2.71484,10.10156 v 14.98828 c 0,3.76562 -0.88671,7.13281 -2.66015,10.10156 -1.77344,2.96875 -4.21875,5.30469 -7.33203,7.00391 -3.11328,1.70312 -6.66016,2.55469 -10.64453,2.55469"
         id="path30"
         style="fill:#10a893;fill-opacity:1" /><path
         d="m 203.11719,508.78125 v -0.008 c 0.0273,-0.0117 0.0469,-0.043 0.0664,-0.0625"
         id="path31" /><path
         d="m 229.48437,535.01172 h -13.41276 c -1.46125,0 -3.48524,-0.83584 -4.5184,-1.8692 -2.67625,-2.67676 -5.34329,-5.36277 -8.02977,-8.02924 -7.68769,5.19876 -15.99172,7.13582 -24.64844,6.52734 5.3412,-5.04177 10.6855,-10.08021 16.03123,-15.11716 l 0.008,-0.0117 c -4.61255,-4.61284 -9.22441,-9.22638 -13.83642,-13.83978 -1.0331,-1.03342 -1.03299,-2.70878 2.8e-4,-3.74205 l 4.29728,-4.29728 c 1.03327,-1.03327 2.70654,-1.03129 3.73905,0.003 4.68738,4.69425 9.39779,9.36562 14.06934,14.07561 l 0.0312,-0.0274 c 2.15028,-2.23755 3.14341,-5.47381 3.60848,-7.80551 0.28568,-1.43233 1.56825,-2.61657 3.0295,-2.61657 h 7.60678 c 1.46125,0 2.49718,1.17699 2.20134,2.60767 -0.92989,4.4968 -3.03817,10.62134 -7.79379,16.52123 z"
         id="path32"
         style="fill:#10a893;fill-opacity:1" /><path
         d="m 207.56641,489.89956 c -0.15152,-2.01302 -0.47888,-3.93125 -0.97866,-5.75299 -0.38644,-1.40863 -1.2347,-3.62773 -1.88606,-4.93517 -0.74121,-1.48778 -1.60453,-2.87263 -2.59127,-4.15501 -0.89068,-1.15753 -2.53325,-2.87645 -3.65219,-3.81509 -1.20286,-1.00903 -2.49853,-1.89114 -3.88825,-2.6484 -1.28253,-0.69886 -3.47977,-1.60632 -4.88232,-2.01376 -1.69008,-0.49097 -3.46881,-0.81355 -5.33771,-0.96825 -1.45586,-0.12052 -3.83,-0.12052 -5.28581,4.6e-4 -3.04112,0.25272 -5.84748,0.95145 -8.41717,2.0981 -1.33371,0.59514 -3.38297,1.80089 -4.55617,2.67085 -2.15892,1.6009 -4.00684,3.52955 -5.54728,5.78507 -0.82378,1.20619 -1.95917,3.29398 -2.5191,4.64298 -1.14675,2.76282 -1.83834,5.79212 -2.0758,9.091 -0.1049,1.45717 -0.1049,3.83016 0.003,5.28712 0.15083,2.04284 0.47998,4.00026 0.98919,5.87109 0.38363,1.40943 1.21945,3.63287 1.85992,4.94571 0.73577,1.50818 1.58938,2.90355 2.56085,4.1852 0.88222,1.16392 2.52247,2.88575 3.64341,3.82195 1.19364,0.99693 2.48833,1.8756 3.88491,2.63727 1.28232,0.69936 3.47426,1.61848 4.87366,2.03671 2.13525,0.63815 4.38209,0.99859 6.75569,1.09231 1.45973,0.0576 1.78324,0.80941 0.72005,1.81185 l -7.49749,7.06906 c -1.06319,1.00244 -3.0745,1.52086 -4.45562,1.04464 -3.55585,-1.22607 -8.37294,-3.48795 -13.02686,-7.59288 -1.09564,-0.96639 -2.76498,-2.65204 -3.72085,-3.75692 -2.13563,-2.46854 -3.93966,-5.18513 -5.41318,-8.14651 -0.65084,-1.30803 -1.56954,-3.49527 -2.03889,-4.87878 -1.09472,-3.22695 -1.75262,-6.60808 -1.97028,-10.13997 -0.0899,-1.45826 -0.0899,-3.83013 1e-4,-5.28837 0.21738,-3.5211 0.8734,-6.88341 1.96463,-10.08353 0.47151,-1.38276 1.39632,-3.56744 2.04903,-4.87455 1.4654,-2.93462 3.25073,-5.63227 5.35601,-8.08866 0.95074,-1.1093 2.61317,-2.8018 3.70651,-3.77084 2.41485,-2.14028 5.06878,-3.94891 7.96498,-5.42057 1.30247,-0.66183 3.48504,-1.59227 4.86695,-2.06623 3.17985,-1.09061 6.52499,-1.74565 10.03883,-1.96285 1.45824,-0.0901 3.83012,-0.0901 5.28836,1e-4 3.51143,0.2173 6.85565,0.8723 10.03493,1.96274 1.38191,0.47398 3.5644,1.40452 4.86735,2.06541 2.90434,1.47316 5.57403,3.28404 8.00585,5.4273 1.09605,0.96599 2.76566,2.65141 3.72083,3.75689 2.13139,2.46683 3.93472,5.18368 5.41107,8.14299 0.65222,1.30736 1.57365,3.49346 2.04298,4.87697 1.0842,3.19609 1.73485,6.54107 1.95649,10.03496 0.0925,1.4581 -1.09873,2.64403 -2.55998,2.64403 l -7.52084,-2e-5 c -1.46125,0 -2.63383,-1.18662 -2.74348,-2.64341 z"
         id="path33"
         style="fill:#336df4;fill-opacity:1" /><path
         d="m 235.90234,528.02214 0,-70.73959 a 2.6458333,2.6458333 135 0 1 2.64583,-2.64583 h 3.39584 a 4.7030574,4.7030574 29.361118 0 1 4.01951,2.26129 l 30.23179,49.76605 h -5.64844 l 30.23179,-49.76605 a 4.7030574,4.7030574 150.63888 0 1 4.01951,-2.26129 h 3.39584 a 2.6458333,2.6458333 45 0 1 2.64583,2.64583 v 70.73959 a 2.6458333,2.6458333 135 0 1 -2.64583,2.64583 h -7.19662 a 2.6458333,2.6458333 45 0 1 -2.64583,-2.64583 v -51.44402 l 2.82422,0.76172 -22.08555,36.29444 a 4.7072086,4.7072086 150.66048 0 1 -4.02122,2.26025 h -3.39584 a 4.7072076,4.7072076 29.339526 0 1 -4.02122,-2.26025 l -22.08554,-36.29444 2.82421,-0.76172 v 51.44402 a 2.6458333,2.6458333 135 0 1 -2.64583,2.64583 h -7.19662 a 2.6458333,2.6458333 45 0 1 -2.64583,-2.64583 z"
         id="path34"
         style="fill:#336df4;fill-opacity:1" /><path
         d="m 361.89062,531.75391 c -5.5039,0 -10.58984,-0.9961 -15.26171,-2.98829 -4.67188,-1.98828 -8.74219,-4.77734 -12.21875,-8.36328 -3.47657,-3.58203 -6.15625,-7.74609 -8.03907,-12.48828 -1.88281,-4.74219 -2.82031,-9.83203 -2.82031,-15.26172 0,-5.42968 0.9375,-10.51562 2.82031,-15.26172 1.88282,-4.73828 4.5625,-8.88671 8.03907,-12.43359 3.47656,-3.54687 7.54687,-6.33594 12.21875,-8.36328 4.67187,-2.02734 9.75781,-3.04297 15.26171,-3.04297 6.15235,0 11.47266,1.01563 15.96485,3.04297 3.67906,1.66182 7.01691,3.8092 10.01571,6.4443 1.09749,0.96439 1.09198,2.64723 0.0587,3.6805 l -4.73088,4.73087 c -1.03327,1.03327 -2.65997,0.9808 -3.76298,0.0236 -1.83812,-1.59513 -3.94102,-2.89812 -6.30712,-3.91053 -3.22266,-1.375 -6.96875,-2.0625 -11.23829,-2.0625 -3.76953,0 -7.20703,0.65234 -10.32031,1.95312 -3.11328,1.30469 -5.80859,3.17188 -8.08984,5.59375 -2.28125,2.42579 -4.03906,5.30469 -5.26953,8.63672 -1.23047,3.33203 -1.84375,6.98828 -1.84375,10.96875 0,3.98438 0.61328,7.64063 1.84375,10.96875 1.23047,3.33203 2.98828,6.21094 5.26953,8.63672 2.28125,2.42578 4.97656,4.28906 8.08984,5.59375 3.11328,1.30078 6.55078,1.95313 10.32031,1.95313 4.63282,0 8.5586,-0.70703 11.78125,-2.11719 2.36753,-1.03598 4.47153,-2.35656 6.31044,-3.96176 1.10024,-0.96041 2.7264,-1.01312 3.75967,0.0202 l 4.73088,4.73088 c 1.03327,1.03327 1.04803,2.72549 -0.0448,3.69509 -3.03698,2.69452 -6.48826,4.87277 -10.35384,6.53908 -4.71094,2.02734 -10.10156,3.04297 -16.1836,3.04297"
         id="path40"
         style="fill:#336df4;fill-opacity:1" /></g></g></svg>
